<?xml version="1.0" encoding="UTF-8"?>
<svg width="752pt" height="752pt" version="1.1" viewBox="0 0 752 752" xmlns="http://www.w3.org/2000/svg">
 <defs>
  <clipPath id="a">
   <path d="m139.21 139.21h473.58v473.58h-473.58z"/>
  </clipPath>
 </defs>
 <g clip-path="url(#a)">
  <path d="m376 139.21c-130.57 0-236.79 106.22-236.79 236.79s106.22 236.79 236.79 236.79 236.79-106.22 236.79-236.79c0.003907-130.57-106.22-236.79-236.79-236.79zm206.94 236.79c0 50.977-18.57 97.676-49.242 133.78l-99.684-80.785c12.785-13.984 20.602-32.598 20.602-52.988 0-40.496-30.781-73.93-70.176-78.156l-29.637-127.71c6.9648-0.71094 14.035-1.0781 21.199-1.0781 114.1 0 206.94 92.836 206.94 206.94zm-228.69-75.523-41.531-121.47c6.9531-2.2383 14.051-4.1484 21.305-5.6484l29.031 125.12c-2.9961 0.48828-5.9336 1.1602-8.8047 1.9961zm21.746 17.875c31.785 0 57.652 25.863 57.652 57.648 0.003906 31.789-25.863 57.656-57.652 57.656-31.785 0-57.648-25.867-57.648-57.656 0-31.785 25.863-57.648 57.648-57.648zm29.781 130.39 44.902 120.2c-6.668 2.5898-13.492 4.8477-20.469 6.75l-32.5-124.14c2.75-0.79688 5.4414-1.7227 8.0664-2.8047zm-236.72-72.738c0-54.086 20.879-103.37 54.973-140.27l97.512 83.656c-14.879 14.312-24.16 34.398-24.16 56.617 0 43.348 35.266 78.613 78.613 78.613 0.28125 0 0.55469-0.019531 0.82812-0.019531l32.875 125.55c-10.973 1.8125-22.227 2.793-33.703 2.793-114.1 0-206.94-92.836-206.94-206.94z"/>
 </g>
</svg>
